<?xml version="1.0" encoding="UTF-8" standalone="no"?>
<!-- Created with Inkscape (http://www.inkscape.org/) -->

<svg
   xmlns:dc="http://purl.org/dc/elements/1.1/"
   xmlns:cc="http://creativecommons.org/ns#"
   xmlns:rdf="http://www.w3.org/1999/02/22-rdf-syntax-ns#"
   xmlns:svg="http://www.w3.org/2000/svg"
   xmlns="http://www.w3.org/2000/svg"
   xmlns:sodipodi="http://sodipodi.sourceforge.net/DTD/sodipodi-0.dtd"
   xmlns:inkscape="http://www.inkscape.org/namespaces/inkscape"
   width="210mm"
   height="150mm"
   viewBox="0 0 210 150"
   version="1.1"
   id="svg8"
   inkscape:version="0.92.5 (2060ec1f9f, 2020-04-08)"
   sodipodi:docname="side.svg">
  <defs
     id="defs2" />
  <sodipodi:namedview
     id="base"
     pagecolor="#ffffff"
     bordercolor="#666666"
     borderopacity="1.0"
     inkscape:pageopacity="0.0"
     inkscape:pageshadow="2"
     inkscape:zoom="0.64112397"
     inkscape:cx="420.58108"
     inkscape:cy="298.16438"
     inkscape:document-units="mm"
     inkscape:current-layer="layer1"
     showgrid="false"
     inkscape:window-width="1366"
     inkscape:window-height="704"
     inkscape:window-x="0"
     inkscape:window-y="0"
     inkscape:window-maximized="1" />
  <metadata
     id="metadata5">
    <rdf:RDF>
      <cc:Work
         rdf:about="">
        <dc:format>image/svg+xml</dc:format>
        <dc:type
           rdf:resource="http://purl.org/dc/dcmitype/StillImage" />
        <dc:title></dc:title>
      </cc:Work>
    </rdf:RDF>
  </metadata>
  <g
     inkscape:label="Layer 1"
     inkscape:groupmode="layer"
     id="layer1"
     transform="translate(0,-147)">
    <rect
       style="fill:#00ff00;fill-opacity:1;fill-rule:evenodd;stroke:none;stroke-width:0.60000002;stroke-linecap:square;stroke-linejoin:bevel;stroke-miterlimit:4;stroke-dasharray:none;stroke-dashoffset:234.33070374;stroke-opacity:1;paint-order:markers stroke fill"
       id="rect12"
       width="117.92857"
       height="24.190477"
       x="230.18871"
       y="9.9668264"
       transform="rotate(10.209234)" />
    <rect
       style="fill:#ff00ff;fill-opacity:1;fill-rule:evenodd;stroke:none;stroke-width:0.57497829;stroke-linecap:square;stroke-linejoin:bevel;stroke-miterlimit:4;stroke-dasharray:none;stroke-dashoffset:234.33070374;stroke-opacity:1;paint-order:markers stroke fill"
       id="rect14"
       width="114.90475"
       height="21.922619"
       x="-59.872066"
       y="297.15704"
       transform="rotate(-57.723369)" />
    <rect
       style="fill:#00ffff;fill-opacity:1;fill-rule:evenodd;stroke:none;stroke-width:0.60000002;stroke-linecap:square;stroke-linejoin:bevel;stroke-miterlimit:4;stroke-dasharray:none;stroke-dashoffset:234.33070374;stroke-opacity:1;paint-order:markers stroke fill"
       id="rect16"
       width="128.5119"
       height="22.678572"
       x="-47.65292"
       y="139.80766"
       transform="rotate(54.645845)" />
    <rect
       style="fill:#ff0000;fill-opacity:1;fill-rule:evenodd;stroke:none;stroke-width:0.50254363;stroke-linecap:square;stroke-linejoin:bevel;stroke-miterlimit:4;stroke-dasharray:none;stroke-dashoffset:234.33070374;stroke-opacity:1;paint-order:markers stroke fill"
       id="rect18"
       width="119.71376"
       height="21.338585"
       x="314.42523"
       y="216.25438"
       transform="matrix(0.98726565,-0.15908029,-0.06784013,0.9976962,0,0)" />
    <rect
       style="fill:#ccff00;fill-opacity:1;fill-rule:evenodd;stroke:none;stroke-width:0.60000002;stroke-linecap:square;stroke-linejoin:bevel;stroke-miterlimit:4;stroke-dasharray:none;stroke-dashoffset:234.33070374;stroke-opacity:1;paint-order:markers stroke fill"
       id="rect62"
       width="22.249054"
       height="13.229166"
       x="340.83899"
       y="71.510498" />
    <path
       style="fill:#ccff00;fill-opacity:1;fill-rule:evenodd;stroke:none;stroke-width:0.60000002;stroke-linecap:square;stroke-linejoin:bevel;stroke-miterlimit:4;stroke-dasharray:none;stroke-dashoffset:234.33070374;stroke-opacity:1;paint-order:markers stroke fill"
       d="m 337.10352,39.713139 a 16.837122,16.837122 0 0 0 -16.83722,16.83721 16.837122,16.837122 0 0 0 16.83722,16.83722 16.837122,16.837122 0 0 0 16.83669,-16.83722 16.837122,16.837122 0 0 0 -16.83669,-16.83721 z m -0.89556,9.87743 a 7.5165714,7.5165714 0 0 1 7.51634,7.51685 7.5165714,7.5165714 0 0 1 -7.51634,7.51634 7.5165714,7.5165714 0 0 1 -7.51685,-7.51634 7.5165714,7.5165714 0 0 1 7.51685,-7.51685 z"
       id="path69"
       inkscape:connector-curvature="0" />
    <path
       style="fill:#ccff00;fill-opacity:1;fill-rule:evenodd;stroke:none;stroke-width:0.60000002;stroke-linecap:square;stroke-linejoin:bevel;stroke-miterlimit:4;stroke-dasharray:none;stroke-dashoffset:234.33070374;stroke-opacity:1;paint-order:markers stroke fill"
       d="m 273.21245,29.360415 a 17.137785,17.137785 0 0 0 -17.13797,17.13797 17.137785,17.137785 0 0 0 17.13797,17.13798 17.137785,17.137785 0 0 0 17.13745,-17.13798 17.137785,17.137785 0 0 0 -17.13745,-17.13797 z m 0.22221,11.97756 a 4.8149237,5.252644 0 0 1 4.81521,5.2524 4.8149237,5.252644 0 0 1 -4.81521,5.25291 4.8149237,5.252644 0 0 1 -4.81469,-5.25291 4.8149237,5.252644 0 0 1 4.81469,-5.2524 z"
       id="path71"
       inkscape:connector-curvature="0" />
    <rect
       style="fill:#ccff00;fill-opacity:1;fill-rule:evenodd;stroke:none;stroke-width:0.54174;stroke-linecap:square;stroke-linejoin:bevel;stroke-miterlimit:4;stroke-dasharray:none;stroke-dashoffset:234.33070374;stroke-opacity:1;paint-order:markers stroke fill"
       id="rect73"
       width="12.745662"
       height="54.720642"
       x="306.17892"
       y="52.221134" />
    <path
       style="fill:#ccff00;fill-opacity:1;fill-rule:evenodd;stroke:none;stroke-width:0.60000002;stroke-linecap:square;stroke-linejoin:bevel;stroke-miterlimit:4;stroke-dasharray:none;stroke-dashoffset:234.33070374;stroke-opacity:1;paint-order:markers stroke fill"
       d="m 326.32257,56.619933 a 20.144411,20.144411 0 0 0 -18.93786,17.080094 20.144411,20.144411 0 0 0 16.87287,22.95416 20.144411,20.144411 0 0 0 18.54771,-7.08898 l -6.53862,-0.99839 a 14.431818,14.431818 0 0 1 -10.89494,2.7833 14.431818,14.431818 0 0 1 -12.08764,-16.44551 14.431818,14.431818 0 0 1 16.44499,-12.08763 14.431818,14.431818 0 0 1 11.10992,8.69352 h -16.95039 v 5.39864 h 23.1991 v -3.81114 -1.5875 h -0.37413 a 20.144411,20.144411 0 0 0 -16.3742,-14.683339 20.144411,20.144411 0 0 0 -4.01681,-0.207225 z"
       id="path77"
       inkscape:connector-curvature="0" />
    <rect
       style="fill:#cc33cc;fill-opacity:1;fill-rule:evenodd;stroke:none;stroke-width:0.60000002;stroke-linecap:square;stroke-linejoin:bevel;stroke-miterlimit:4;stroke-dasharray:none;stroke-dashoffset:234.33070374;stroke-opacity:1;paint-order:markers stroke fill"
       id="rect119"
       width="13.299041"
       height="136.92288"
       x="96.475624"
       y="156.36293" />
    <path
       style="fill:#cc33cc;fill-opacity:1;fill-rule:evenodd;stroke:none;stroke-width:0.55363417;stroke-linecap:square;stroke-linejoin:bevel;stroke-miterlimit:4;stroke-dasharray:none;stroke-dashoffset:234.33070374;stroke-opacity:1;paint-order:markers stroke fill"
       d="m 96.475418,156.36306 v 14.35468 h 78.176622 l 20.21324,-14.35468 z"
       id="rect123"
       inkscape:connector-curvature="0" />
    <path
       style="fill:#ffff00;fill-opacity:1;fill-rule:evenodd;stroke:none;stroke-width:0.58314675;stroke-linecap:square;stroke-linejoin:bevel;stroke-miterlimit:4;stroke-dasharray:none;stroke-dashoffset:234.33070374;stroke-opacity:1;paint-order:markers stroke fill"
       d="m 81.711967,162.96593 c -34.83068,7.15226 -57.306983,41.37522 -50.202174,76.43903 7.104707,35.06383 41.100093,57.69059 75.930737,50.53823 14.87189,-3.05412 28.1932,-11.30083 37.61102,-23.28352 l -22.41919,4.60368 c -5.44735,3.48706 -11.48161,5.9431 -17.80569,7.24718 -28.683904,5.88984 -50.283615,-14.75609 -56.134521,-43.63196 -5.850962,-28.87588 6.262489,-55.04715 34.946306,-60.93749 11.788735,-2.40211 24.038505,-0.69663 34.737125,4.8363 l 15.94588,-3.27442 C 119.46294,163.75294 100.22634,159.16879 81.711967,162.96593 Z"
       id="path41"
       inkscape:connector-curvature="0"
       sodipodi:nodetypes="ccccccccccc" />
    <path
       style="fill:#9999ff;fill-opacity:1;fill-rule:evenodd;stroke:none;stroke-width:0.54972887;stroke-linecap:square;stroke-linejoin:bevel;stroke-miterlimit:4;stroke-dasharray:none;stroke-dashoffset:234.33070374;stroke-opacity:1;paint-order:markers stroke fill"
       d="m 14.444035,215.28795 v 13.6188 H 143.7426 l 21.67517,-13.6188 z"
       id="rect121"
       inkscape:connector-curvature="0" />
  </g>
</svg>
